<!DOCTYPE svg PUBLIC "-//W3C//DTD SVG 20010904//EN" "http://www.w3.org/TR/2001/REC-SVG-20010904/DTD/svg10.dtd">
<svg version="1.0" xmlns="http://www.w3.org/2000/svg" width="77px" height="242px" viewBox="0 0 770 2420" preserveAspectRatio="xMidYMid meet">
<g id="layer1" fill="#000000" stroke="none">
 <path d="M234 2272 c-12 -2 -30 -12 -40 -24 -18 -19 -19 -63 -22 -1030 l-2 -1009 29 -30 c35 -34 62 -36 116 -8 88 46 197 124 211 150 12 24 14 160 14 893 0 623 -3 872 -11 890 -10 22 -127 108 -198 145 -33 18 -72 27 -97 23z m22 -38 c-3 -9 -6 -38 -6 -65 0 -48 0 -49 -31 -49 -32 0 -32 0 -26 45 2 25 13 55 22 65 22 24 50 27 41 4z m137 -74 c48 -29 95 -62 103 -75 12 -19 14 -141 12 -879 l-3 -858 -28 -23 c-48 -42 -166 -107 -182 -101 -13 5 -15 122 -15 994 0 544 3 992 6 995 4 4 10 5 13 3 3 -2 46 -27 94 -56z m-148 -940 l0 -865 -27 -3 -28 -3 0 871 0 871 28 -3 27 -3 0 -865z m5 -954 c0 -30 5 -58 10 -61 16 -10 11 -25 -8 -25 -31 0 -55 36 -60 90 l-5 50 32 0 c31 0 31 0 31 -54z"/>
 <path d="M376 2098 c-27 -38 -12 -145 18 -135 22 7 38 57 31 97 -9 53 -28 68 -49 38z m37 -39 c6 -22 5 -45 -3 -64 -11 -29 -12 -29 -26 -11 -23 32 -16 122 10 113 6 -2 15 -19 19 -38z"/>
 <path d="M307 1953 c-4 -3 -7 -354 -7 -780 0 -893 -14 -803 115 -732 l75 41 0 703 0 703 -84 36 c-93 40 -90 39 -99 29z m96 -47 l67 -29 0 -693 0 -693 -72 -40 c-40 -22 -76 -38 -80 -35 -10 6 -11 1508 -1 1518 4 3 10 5 13 4 3 -2 36 -16 73 -32z"/>
 <path d="M401 389 c-18 -11 -31 -22 -28 -25 6 -7 63 22 72 36 10 16 -7 12 -44 -11z"/>
 <path d="M330 350 c0 -5 5 -10 11 -10 5 0 7 5 4 10 -3 6 -8 10 -11 10 -2 0 -4 -4 -4 -10z"/>
 <path d="M210 864 c0 -47 4 -73 10 -69 6 3 10 37 10 76 0 39 -4 69 -10 69 -6 0 -10 -32 -10 -76z"/>
 <path d="M210 654 c0 -47 4 -73 10 -69 6 3 10 37 10 76 0 39 -4 69 -10 69 -6 0 -10 -32 -10 -76z"/>
 <path d="M210 460 c0 -16 5 -30 10 -30 6 0 10 14 10 30 0 17 -4 30 -10 30 -5 0 -10 -13 -10 -30z"/>
 </g>

</svg>